<?xml version="1.0" encoding="iso-8859-1"?>
<!-- Generator: Adobe Illustrator 16.0.0, SVG Export Plug-In . SVG Version: 6.00 Build 0)  -->
<!DOCTYPE svg PUBLIC "-//W3C//DTD SVG 1.1//EN" "http://www.w3.org/Graphics/SVG/1.1/DTD/svg11.dtd">
<svg version="1.1" id="Capa_1" xmlns="http://www.w3.org/2000/svg" xmlns:xlink="http://www.w3.org/1999/xlink" x="0px" y="0px"
	 width="428.703px" height="428.703px" viewBox="0 0 428.703 428.703" style="enable-background:new 0 0 428.703 428.703;"
	 xml:space="preserve">
<g>
	<g>
		<path d="M45.292,56.132C20.316,56.132,0,76.449,0,101.424c0,24.976,20.316,45.295,45.292,45.295
			c24.974,0,45.292-20.319,45.292-45.295C90.584,76.45,70.266,56.132,45.292,56.132z M45.292,124.872
			c-12.927,0-23.444-10.52-23.444-23.447c0-12.927,10.518-23.443,23.444-23.443c12.926,0,23.444,10.517,23.444,23.443
			C68.737,114.352,58.219,124.872,45.292,124.872z"/>
		<path d="M127.252,118.775h284.102c9.584,0,17.35-7.77,17.35-17.35c0-9.582-7.766-17.35-17.35-17.35H127.252
			c-9.579,0-17.35,7.768-17.35,17.35C109.903,111.005,117.673,118.775,127.252,118.775z"/>
		<path d="M45.292,169.06C20.316,169.06,0,189.376,0,214.352c0,24.976,20.316,45.292,45.292,45.292
			c24.974,0,45.292-20.316,45.292-45.292C90.584,189.376,70.266,169.06,45.292,169.06z M45.292,237.796
			c-12.927,0-23.444-10.518-23.444-23.444s10.518-23.443,23.444-23.443c12.926,0,23.444,10.517,23.444,23.443
			C68.737,227.28,58.219,237.796,45.292,237.796z"/>
		<path d="M411.354,197.001H127.252c-9.579,0-17.35,7.769-17.35,17.35s7.771,17.351,17.35,17.351h284.102
			c9.584,0,17.35-7.77,17.35-17.351S420.938,197.001,411.354,197.001z"/>
		<path d="M45.292,281.984C20.316,281.984,0,302.305,0,327.279c0,24.976,20.316,45.292,45.292,45.292
			c24.974,0,45.292-20.316,45.292-45.292C90.584,302.305,70.266,281.984,45.292,281.984z M45.292,350.724
			c-12.927,0-23.444-10.517-23.444-23.444c0-12.927,10.518-23.446,23.444-23.446c12.926,0,23.444,10.52,23.444,23.446
			C68.736,340.207,58.219,350.724,45.292,350.724z"/>
		<path d="M411.354,309.928H127.252c-9.579,0-17.35,7.77-17.35,17.351s7.771,17.351,17.35,17.351h284.102
			c9.584,0,17.35-7.77,17.35-17.351S420.938,309.928,411.354,309.928z"/>
	</g>
</g>
<g>
</g>
<g>
</g>
<g>
</g>
<g>
</g>
<g>
</g>
<g>
</g>
<g>
</g>
<g>
</g>
<g>
</g>
<g>
</g>
<g>
</g>
<g>
</g>
<g>
</g>
<g>
</g>
<g>
</g>
</svg>
